<?xml version="1.0" encoding="UTF-8" standalone="no"?>
<!-- Created with Inkscape (http://www.inkscape.org/) -->

<svg
   version="1.1"
   id="svg256"
   width="396.77759"
   height="368.80188"
   viewBox="0 0 396.77759 368.80188"
   sodipodi:docname="Logo_burrito.svg"
   inkscape:export-filename="Logo_burrito_210812_184057..svg"
   inkscape:export-xdpi="93.731987"
   inkscape:export-ydpi="93.731987"
   inkscape:version="1.2.2 (732a01da63, 2022-12-09, custom)"
   xmlns:inkscape="http://www.inkscape.org/namespaces/inkscape"
   xmlns:sodipodi="http://sodipodi.sourceforge.net/DTD/sodipodi-0.dtd"
   xmlns="http://www.w3.org/2000/svg"
   xmlns:svg="http://www.w3.org/2000/svg">
  <defs
     id="defs260">
    <clipPath
       clipPathUnits="userSpaceOnUse"
       id="clipPath272">
      <path
         d="M 0,300 H 300 V 0 H 0 Z"
         id="path270" />
    </clipPath>
    <clipPath
       clipPathUnits="userSpaceOnUse"
       id="clipPath504">
      <path
         d="M 0,300 H 300 V 0 H 0 Z"
         id="path502" />
    </clipPath>
  </defs>
  <sodipodi:namedview
     id="namedview258"
     pagecolor="#ffffff"
     bordercolor="#000000"
     borderopacity="0.25"
     inkscape:showpageshadow="2"
     inkscape:pageopacity="0.0"
     inkscape:pagecheckerboard="0"
     inkscape:deskcolor="#d1d1d1"
     showgrid="false"
     inkscape:zoom="1.6514684"
     inkscape:cx="257.34674"
     inkscape:cy="108.08563"
     inkscape:window-width="1366"
     inkscape:window-height="704"
     inkscape:window-x="0"
     inkscape:window-y="0"
     inkscape:window-maximized="1"
     inkscape:current-layer="g268" />
  <g
     id="g264"
     inkscape:groupmode="layer"
     inkscape:label="Page 1"
     transform="matrix(1.3333333,0,0,-1.3333333,-2.6826361,394.25239)">
    <g
       id="g709">
      <g
         id="g268"
         clip-path="url(#clipPath272)">
        <g
           id="g274"
           transform="translate(138.6438,172.9404)">
          <path
             d="m 0,0 c -4.068,19.191 2.602,37.702 16.34,46.372 9.539,6.02 19.741,5.562 24.307,5.041 4.17,0.019 13.608,-0.514 23.266,-6.497 6.861,-4.251 11.009,-9.504 13.204,-12.785"
             style="fill:none;stroke:#000000;stroke-width:2;stroke-linecap:butt;stroke-linejoin:miter;stroke-miterlimit:10;stroke-dasharray:none;stroke-opacity:1"
             id="path276" />
        </g>
        <g
           id="g278"
           transform="translate(166.963,164.5143)">
          <path
             d="m 0,0 c 0,-2.836 -1.924,-5.135 -4.297,-5.135 -2.373,0 -4.296,2.299 -4.296,5.135 0,2.836 1.923,5.135 4.296,5.135 C -1.924,5.135 0,2.836 0,0"
             style="fill:#000000;fill-opacity:1;fill-rule:nonzero;stroke:none"
             id="path280" />
        </g>
        <g
           id="g282"
           transform="translate(166.963,164.5143)">
          <path
             d="m 0,0 c 0,-2.836 -1.924,-5.135 -4.297,-5.135 -2.373,0 -4.296,2.299 -4.296,5.135 0,2.836 1.923,5.135 4.296,5.135 C -1.924,5.135 0,2.836 0,0 Z"
             style="fill:none;stroke:#000000;stroke-width:1;stroke-linecap:butt;stroke-linejoin:miter;stroke-miterlimit:10;stroke-dasharray:none;stroke-opacity:1"
             id="path284" />
        </g>
        <g
           id="g286"
           transform="translate(185.2046,164.5143)">
          <path
             d="m 0,0 c 0,-2.836 -1.924,-5.135 -4.297,-5.135 -2.373,0 -4.296,2.299 -4.296,5.135 0,2.836 1.923,5.135 4.296,5.135 C -1.924,5.135 0,2.836 0,0"
             style="fill:#000000;fill-opacity:1;fill-rule:nonzero;stroke:none"
             id="path288" />
        </g>
        <path
           d="m 185.2046,164.5143 c 0,-2.836 -1.924,-5.135 -4.297,-5.135 -2.373,0 -4.296,2.299 -4.296,5.135 0,2.836 1.923,5.135 4.296,5.135 2.373,0 4.297,-2.299 4.297,-5.135 z"
           style="fill:none;stroke:#000000;stroke-width:1;stroke-linecap:butt;stroke-linejoin:miter;stroke-miterlimit:10;stroke-dasharray:none;stroke-opacity:1"
           id="path292" />
        <g
           id="g298"
           transform="translate(203.6504,109.5415)">
          <path
             d="m 0.75627894,2.5891179 c -0.765,0.771 -1.17386939,0.9121983 -2.29906444,0.8305188 C -3.2211659,3.0786471 -4.71,2.484 -6.328,1.986 -10.2,0.797 -14.072,-0.393 -17.943,-1.583 c -4.029,-1.238 -8.129,-2.51 -11.595,-4.908 -1.256,-0.868 -2.521,-2.11 -2.434,-3.634 8.058,-2.571 17.133,-2.289 24.642,1.603 3.429,1.777 8.6758661,10.2923353 8.08627894,11.1111179 z"
             style="fill:#000000;stroke:#000000;stroke-width:1;stroke-linecap:butt;stroke-linejoin:miter;stroke-miterlimit:10;stroke-dasharray:none;stroke-opacity:1;fill-opacity:1"
             id="path300"
             sodipodi:nodetypes="cccccccc" />
        </g>
        <g
           id="g302"
           transform="translate(206.7475,165.0051)">
          <path
             d="m 0,0 c 1.604,-9.054 3.208,-18.107 4.812,-27.161 0.808,-4.564 1.619,-9.137 2.882,-13.596 1.586,-5.599 6.172438,-14.695507 6.15,-16.325 0.02082,-1.365353 -7.96,-7.395 -12.803,-9.462 -2.158,-0.921 -4.392,-1.649 -6.623,-2.375 -2.913,-0.949 -5.825,-1.897 -8.737,-2.845 -8.648,-2.817 -16.946625,-6.057459 -26.073573,-7.634435 0,0 -9.372465,0.01483 -14.278658,1.135119 0,0 -9.342209,3.226786 -10.152499,3.790373"
             style="fill:none;stroke:#000000;stroke-width:2;stroke-linecap:round;stroke-linejoin:round;stroke-miterlimit:10;stroke-dasharray:none;stroke-opacity:1"
             id="path304"
             sodipodi:nodetypes="ccccsccccc" />
        </g>
        <g
           id="g310"
           transform="translate(148.2645,90.8766)">
          <path
             d="M -6.186677,-0.48105551 C -6.6015718,0.04433684 -10.514705,1.4344278 -13.012526,4.0480192 -16.414669,7.6078465 -18.626025,12.762031 -19.066,14.846"
             style="fill:none;stroke:#000000;stroke-width:2;stroke-linecap:butt;stroke-linejoin:miter;stroke-miterlimit:10;stroke-dasharray:none;stroke-opacity:1"
             id="path312"
             sodipodi:nodetypes="csc" />
        </g>
        <g
           id="g314"
           transform="translate(123.3208,116.1236)">
          <path
             d="M 0.46077139,-0.4433368 C 7.3447714,6.9046632 11.643,18.059 13.629,27.93 c 1.985,9.871 1.947,20.04 1.349,30.091"
             style="fill:none;stroke:#000000;stroke-width:2;stroke-linecap:butt;stroke-linejoin:miter;stroke-miterlimit:10;stroke-dasharray:none;stroke-opacity:1"
             id="path316"
             sodipodi:nodetypes="ccc" />
        </g>
        <g
           id="g318"
           transform="translate(164.6608,84.9415)">
          <path
             d="m 0,0 c 0.245,-2.356 0.491,-4.711 0.736,-7.067 0.203,-1.941 0.405,-3.894 0.277,-5.842 -0.233,-3.539 -1.589,-6.996 -3.824,-9.75 -0.174,-3.38 0.11,-6.268 1.385,-9.403"
             style="fill:none;stroke:#000000;stroke-width:2;stroke-linecap:butt;stroke-linejoin:miter;stroke-miterlimit:10;stroke-dasharray:none;stroke-opacity:1"
             id="path320" />
        </g>
        <g
           id="g322"
           transform="translate(164.9478,76.0399)">
          <path
             d="m 0,0 c -2.527,-3.812 -6.981,-5.789 -10.496,-8.716 -3.828,-3.187 -6.591,-7.633 -7.754,-12.477"
             style="fill:none;stroke:#000000;stroke-width:2;stroke-linecap:butt;stroke-linejoin:miter;stroke-miterlimit:10;stroke-dasharray:none;stroke-opacity:1"
             id="path324" />
        </g>
        <g
           id="g326"
           transform="translate(239.0014,23.4869)">
          <path
             d="m 0,0 c -0.889,2.418 -1.777,4.835 -2.666,7.253 -42.494,8.952 -84.49,20.26 -125.733,33.856 0.664,-1.484 -0.538,-3.153 0.126,-4.637 3.071,-0.922 6.142,-1.844 9.213,-2.766 -3.642,1.326 -8.118,-0.26 -10.112,-3.584 -0.455,-0.757 -0.749,-1.828 -0.117,-2.446 0.565,-0.552 1.48,-0.37 2.27,-0.384 3.741,-0.063 6.5,-5.192 10.075,-4.089 -2.034,-0.855 -4.543,1.026 -6.489,-0.014 -0.687,-0.367 -1.151,-1.035 -1.589,-1.679 -1.105,-1.625 -2.209,-3.251 -3.314,-4.876 -0.217,-0.319 -0.441,-0.659 -0.458,-1.044 -0.04,-0.867 0.915,-1.396 1.724,-1.713 2.244,-0.878 4.488,-1.757 6.731,-2.635 1.273,-0.499 2.582,-1.02 3.559,-1.976 0.976,-0.956 1.542,-2.469 0.998,-3.723 -1.338,-3.088 -7.418,-1.859 -8.104,-5.154 2.771,0.227 5.371,-1.189 8.035,-1.985 4.387,-1.312 9.076,-0.948 13.639,-0.572"
             style="fill:none;stroke:#000000;stroke-width:2.10000005;stroke-linecap:butt;stroke-linejoin:miter;stroke-miterlimit:10;stroke-dasharray:none;stroke-opacity:1"
             id="path328" />
        </g>
        <g
           id="g330"
           transform="translate(110.7008,62.489)">
          <path
             d="m 0,0 c -0.875,0.67 -11.446,8.731 -15.001,9.726 -0.373,0.104 -1.194,0.323 -2.053,0 -1.419,-0.533 -2.023,-2.201 -2.309,-3.078 -3.385,-10.397 -3.272,-19.524 -3.272,-19.525 0.08,-6.552 0.147,-9.914 1.477,-14.082 0.86,-2.697 2.128,-6.526 5.578,-10.059 1.838,-1.882 4.656,-4.769 9.156,-5.299 5.707,-0.673 9.967,2.933 10.839,3.704"
             style="fill:none;stroke:#000000;stroke-width:2;stroke-linecap:butt;stroke-linejoin:miter;stroke-miterlimit:10;stroke-dasharray:none;stroke-opacity:1"
             id="path332" />
        </g>
        <g
           id="g334"
           transform="translate(138.0276,176.3873)">
          <path
             d="m 0,0 c 1.211,-2.172 2.45,-4.749 3.533,-7.722 0.662,-1.818 1.18,-3.548 1.587,-5.158 2.167,4.348 5.169,8.278 8.795,11.511 3.024,2.697 6.46,4.9 9.491,7.589 3.031,2.689 5.718,6.014 6.595,9.97 -1.224,-5.102 -1.684,-10.386 -1.36,-15.623 4.017,1.846 8.097,3.686 12.239,5.517 4.958,2.192 9.866,4.309 14.72,6.355"
             style="fill:none;stroke:#000000;stroke-width:2;stroke-linecap:butt;stroke-linejoin:miter;stroke-miterlimit:10;stroke-dasharray:none;stroke-opacity:1"
             id="path336" />
        </g>
        <g
           id="g338"
           transform="translate(185.3584,200.8082)">
          <path
             d="m 0,0 c 2.29,-2.3 3.916,-4.481 5.023,-6.15 1.123,-1.694 4.039,-6.373 5.677,-13.161 0.466,-1.931 0.718,-3.573 0.862,-4.742 0.239,3.131 0.477,6.263 0.716,9.394 0.181,2.38 0.362,4.776 0.118,7.151 -0.283,2.749 -0.873,4.655 -2.768,9.865 C 8.354,5.856 6.957,9.595 5.43,13.546"
             style="fill:none;stroke:#000000;stroke-width:2;stroke-linecap:butt;stroke-linejoin:miter;stroke-miterlimit:10;stroke-dasharray:none;stroke-opacity:1"
             id="path340" />
        </g>
        <g
           id="g342"
           transform="translate(197.3858,195.6727)">
          <path
             d="m 0,0 c 1.768,-2.245 4.371,-6.135 5.926,-11.578 1.342,-4.697 1.395,-8.769 1.219,-11.452 0.734,4.054 2.103,7.969 2.89,12.013 0.788,4.044 0.96,8.363 -0.641,12.16 C 8.45,3.382 8.152,3.537 5.221,9.133 3.57,12.282 2.335,14.905 1.555,16.615"
             style="fill:none;stroke:#000000;stroke-width:2;stroke-linecap:butt;stroke-linejoin:miter;stroke-miterlimit:10;stroke-dasharray:none;stroke-opacity:1"
             id="path344" />
        </g>
        <g
           id="g346"
           transform="translate(215.5091,205.8785)">
          <path
             d="m 0,0 4.587,-18.671 c 0.456,-1.857 0.914,-3.72 1.114,-5.621 0.193,-1.827 0.147,-3.67 0.1,-5.507 -0.161,-6.305 -0.338,-12.715 -2.29,-18.713 -1.444,-4.436 -3.858,-8.668 -4.063,-13.33 -0.131,13.943 -1.859,28.006 -1.253,41.878 0.131,3.019 0.263,6.037 0.395,9.056 0.064,1.471 0.119,2.999 -0.452,4.357"
             style="fill:none;stroke:#000000;stroke-width:2;stroke-linecap:butt;stroke-linejoin:miter;stroke-miterlimit:10;stroke-dasharray:none;stroke-opacity:1"
             id="path348" />
        </g>
        <g
           id="g350"
           transform="translate(208.5678,186.9859)">
          <path
             d="m 0,0 c 0.885,-1.994 1.779,-4.021 2.078,-6.182 0.413,-2.989 -0.331,-6.108 0.503,-9.008 -0.312,2.44 1.25,4.768 1.24,7.227"
             style="fill:none;stroke:#000000;stroke-width:2;stroke-linecap:butt;stroke-linejoin:miter;stroke-miterlimit:10;stroke-dasharray:none;stroke-opacity:1"
             id="path352" />
        </g>
        <g
           id="g354"
           transform="translate(218.5541,156.0385)">
          <path
             d="m 0,0 c 0.681,-5.15 1.39,-10.336 2.13,-15.559 0.628,-4.437 1.27,-8.844 1.924,-13.219 2.939,9.517 5.42,19.309 5.414,29.27 C 9.467,1.993 9.407,3.507 9.052,4.966 8.612,6.775 7.982,8.162 7.581,8.95 7.434,9.24 7.318,9.449 7.29,9.501 6.646,10.672 5.38,14.047 2.795,22.626"
             style="fill:none;stroke:#000000;stroke-width:2;stroke-linecap:butt;stroke-linejoin:miter;stroke-miterlimit:10;stroke-dasharray:none;stroke-opacity:1"
             id="path356" />
        </g>
        <g
           id="g358"
           transform="translate(224.6343,134.2276)">
          <path
             d="m 0,0 c 0.161,-4.802 0.474,-9.869 0.987,-15.168 0.408,-4.223 0.912,-8.272 1.484,-12.137 l 2.097,7.924 c 1.153,4.361 2.311,8.74 2.817,13.223 C 8.033,-0.412 9.593,10.382 4.89,21.634 4.429,22.736 4,23.626 3.702,24.22"
             style="fill:none;stroke:#000000;stroke-width:2;stroke-linecap:butt;stroke-linejoin:miter;stroke-miterlimit:10;stroke-dasharray:none;stroke-opacity:1"
             id="path360" />
        </g>
        <g
           id="g362"
           transform="translate(229.6621,115.9899)">
          <path
             d="m 0,0 c 0.947,-2.571 2.38,-4.939 3.348,-7.502 2.304,-6.108 1.822,-12.864 1.308,-19.371 0.639,3.051 1.576,6.033 2.275,9.071 0.571,2.48 2.298,12.642 -0.592,29.105 C 5.52,15.967 4.143,22.234 1.704,29.495"
             style="fill:none;stroke:#000000;stroke-width:2;stroke-linecap:butt;stroke-linejoin:miter;stroke-miterlimit:10;stroke-dasharray:none;stroke-opacity:1"
             id="path364" />
        </g>
        <g
           id="g366"
           transform="translate(236.7499,99.339)">
          <path
             d="m 0,0 c 1.528,-8.795 6.99,-17.091 5.766,-25.933 2.128,5.784 4.291,11.846 3.521,17.961 -0.351,2.797 -1.308,5.479 -1.926,8.23 -0.767,3.418 -1.008,6.953 -0.713,10.443 0.088,1.047 0.209,2.17 -0.306,3.086 -0.677,1.202 -2.213,1.631 -3.12,2.671 C 1.926,17.944 2.2,20.288 1.1,21.925"
             style="fill:none;stroke:#000000;stroke-width:2;stroke-linecap:butt;stroke-linejoin:miter;stroke-miterlimit:10;stroke-dasharray:none;stroke-opacity:1"
             id="path368" />
        </g>
        <g
           id="g370"
           transform="translate(244.8307,79.8033)">
          <path
             d="m 0,0 c 2.816,-4.786 4.254,-10.372 4.101,-15.923 2.288,7.097 2.25,14.703 2.19,22.159 -0.023,2.881 -0.049,5.787 -0.673,8.6 -0.547,2.466 -1.543,4.808 -2.608,7.099 -1.226,2.636 -2.55,5.227 -3.97,7.763"
             style="fill:none;stroke:#000000;stroke-width:2;stroke-linecap:butt;stroke-linejoin:miter;stroke-miterlimit:10;stroke-dasharray:none;stroke-opacity:1"
             id="path372" />
        </g>
        <g
           id="g374"
           transform="translate(250.8287,70.6991)">
          <path
             d="m 0,0 c 3.756,-2.289 5.875,-6.477 7.534,-10.55 1.761,-4.325 3.221,-8.773 4.367,-13.3 0.59,3.356 0.992,6.745 1.204,10.146 0.158,2.535 0.21,5.084 -0.034,7.613 -0.845,8.755 -5.157,16.744 -9.383,24.459 -1.093,1.996 -2.237,4.052 -4.039,5.443"
             style="fill:none;stroke:#000000;stroke-width:2;stroke-linecap:butt;stroke-linejoin:miter;stroke-miterlimit:10;stroke-dasharray:none;stroke-opacity:1"
             id="path376" />
        </g>
        <g
           id="g378"
           transform="translate(264.0495,62.5433)">
          <path
             d="m 0,0 c 5.726,-3.721 12.484,-5.426 19.008,-7.441 3.377,-1.043 6.93,-2.327 9.063,-5.145 1.208,-1.595 1.841,-3.54 2.444,-5.448 2.21,-6.994 4.305,-14.191 4.001,-21.519"
             style="fill:none;stroke:#000000;stroke-width:2;stroke-linecap:butt;stroke-linejoin:miter;stroke-miterlimit:10;stroke-dasharray:none;stroke-opacity:1"
             id="path380" />
        </g>
        <g
           id="g382"
           transform="translate(139.549,281.864)">
          <path
             d="m 0,0 c 4.997,-5.263 9.166,-11.312 12.306,-17.856 6.159,-12.837 8.238,-27.189 10.241,-41.285"
             style="fill:none;stroke:#000000;stroke-width:2;stroke-linecap:butt;stroke-linejoin:miter;stroke-miterlimit:10;stroke-dasharray:none;stroke-opacity:1"
             id="path384" />
        </g>
        <g
           id="g386"
           transform="translate(170.9859,224.6355)">
          <path
             d="m 0,0 c -1.299,9.288 -3.034,19.939 -6.222,28.759 -5.261,14.553 -14.293,27.388 -23.221,40.027 -4.043,-9.738 -11.994,-32.939 -4.562,-59.549 2.271,-8.128 6.787,-16.147 10.025,-21.585"
             style="fill:none;stroke:#000000;stroke-width:2;stroke-linecap:butt;stroke-linejoin:miter;stroke-miterlimit:10;stroke-dasharray:none;stroke-opacity:1"
             id="path388" />
        </g>
        <g
           id="g390"
           transform="translate(197.2802,220.9725)">
          <path
             d="M 0,0 C -2.889,13.663 -2.752,28.138 1.767,41.352 6.286,54.565 15.4,66.408 27.72,72.982 27.177,65.408 27.265,57.789 27.982,50.229 28.479,44.994 29.277,39.774 29.302,34.516 29.358,22.895 25.654,11.625 21.991,0.596 20.547,-3.749 19,-8.265 15.751,-11.491"
             style="fill:none;stroke:#000000;stroke-width:2;stroke-linecap:butt;stroke-linejoin:miter;stroke-miterlimit:10;stroke-dasharray:none;stroke-opacity:1"
             id="path392" />
        </g>
        <g
           id="g394"
           transform="translate(202.6212,218.4842)">
          <path
             d="M 0,0 C 0.655,12.752 -1.416,25.718 1.219,38.212 3.579,49.398 9.78,59.738 18.538,67.087 18.888,47.453 19.218,27.609 15.049,8.42 13.75,2.439 11.911,-3.651 7.914,-8.285"
             style="fill:none;stroke:#000000;stroke-width:2;stroke-linecap:butt;stroke-linejoin:miter;stroke-miterlimit:10;stroke-dasharray:none;stroke-opacity:1"
             id="path396" />
        </g>
        <g
           id="g398"
           transform="translate(139.9575,282.1572)">
          <path
             d="m 0,0 c -2.286,-14.214 -2.172,-28.81 0.334,-42.986 1.475,-8.341 3.887,-16.769 9.08,-23.46"
             style="fill:none;stroke:#000000;stroke-width:2;stroke-linecap:butt;stroke-linejoin:miter;stroke-miterlimit:10;stroke-dasharray:none;stroke-opacity:1"
             id="path400" />
        </g>
        <g
           id="g402"
           transform="translate(3.0733,138.6866)">
          <path
             d="m 0,0 c 13.318,1.151 26.65,2.135 39.992,2.952 11.261,0.69 22.529,1.26 33.797,1.831 12.427,0.629 25.31,1.084 37.75,0.798 -0.063,-1.136 0.102,-2.284 0.485,-3.355 l 11.409,-64.072"
             style="fill:none;stroke:#000000;stroke-width:1;stroke-linecap:butt;stroke-linejoin:miter;stroke-miterlimit:10;stroke-dasharray:none;stroke-opacity:1"
             id="path404" />
        </g>
        <g
           id="g406"
           transform="translate(114.5489,143.1317)">
          <path
             d="m 0,0 -105.515,-6.118 c -2.03,0.842 -4.234,1.263 -6.431,1.227 2.374,-13.91 5.049,-28.083 8.473,-41.773 l 10.008,-40.018"
             style="fill:none;stroke:#000000;stroke-width:1;stroke-linecap:butt;stroke-linejoin:miter;stroke-miterlimit:10;stroke-dasharray:none;stroke-opacity:1"
             id="path408" />
        </g>
        <g
           id="g410"
           transform="translate(9.7341,136.9949)">
          <path
             d="M 0,0 17.599,-77.356"
             style="fill:none;stroke:#000000;stroke-width:1;stroke-linecap:butt;stroke-linejoin:miter;stroke-miterlimit:10;stroke-dasharray:none;stroke-opacity:1"
             id="path412" />
        </g>
        <g
           id="g414"
           transform="translate(92.1045,70.86)">
          <path
             d="M 0,0 C -18.535,-3.055 -38.345,-6.321 -56.88,-9.376 L -72.333,63.596 17.245,67.98 28.97,8.653 V 5.18 C 20.899,3.755 12.828,2.33 4.756,0.905"
             style="fill:none;stroke:#000000;stroke-width:1;stroke-linecap:butt;stroke-linejoin:miter;stroke-miterlimit:10;stroke-dasharray:none;stroke-opacity:1"
             id="path416" />
        </g>
        <g
           id="g418"
           transform="translate(37.4175,54.1277)">
          <path
             d="m 0,0 c 0,-3.044 -3.803,-5.511 -8.495,-5.511 -4.692,0 -8.495,2.467 -8.495,5.511 0,3.044 3.803,5.511 8.495,5.511 C -3.803,5.511 0,3.044 0,0 Z"
             style="fill:none;stroke:#000000;stroke-width:1;stroke-linecap:butt;stroke-linejoin:miter;stroke-miterlimit:10;stroke-dasharray:none;stroke-opacity:1"
             id="path420" />
        </g>
        <g
           id="g422"
           transform="translate(37.4175,54.1277)">
          <path
             d="M 0,0 51.941,7.356"
             style="fill:none;stroke:#000000;stroke-width:1;stroke-linecap:butt;stroke-linejoin:miter;stroke-miterlimit:10;stroke-dasharray:none;stroke-opacity:1"
             id="path424" />
        </g>
        <g
           id="g426"
           transform="translate(35.2248,61.4841)">
          <path
             d="M 0,0 -7.892,-1.305"
             style="fill:none;stroke:#000000;stroke-width:1;stroke-linecap:butt;stroke-linejoin:miter;stroke-miterlimit:10;stroke-dasharray:none;stroke-opacity:1"
             id="path428" />
        </g>
        <g
           id="g430"
           transform="translate(23.707,49.7823)">
          <path
             d="M 0,0 2.656,-7.457 70.23,-22.989"
             style="fill:none;stroke:#000000;stroke-width:1;stroke-linecap:butt;stroke-linejoin:miter;stroke-miterlimit:10;stroke-dasharray:none;stroke-opacity:1"
             id="path432" />
        </g>
        <g
           id="g434"
           transform="translate(33.0566,49.3142)">
          <path
             d="M 0,0 56.302,-13.179"
             style="fill:none;stroke:#000000;stroke-width:1;stroke-linecap:butt;stroke-linejoin:miter;stroke-miterlimit:10;stroke-dasharray:none;stroke-opacity:1"
             id="path436" />
        </g>
        <g
           id="g438"
           transform="translate(87.6054,41.9098)">
          <path
             d="M 0,0 -22.272,7.537 -27.3,9.238 0,13.39"
             style="fill:none;stroke:#000000;stroke-width:1;stroke-linecap:butt;stroke-linejoin:miter;stroke-miterlimit:10;stroke-dasharray:none;stroke-opacity:1"
             id="path440" />
        </g>
        <g
           id="g442"
           transform="translate(66.5558,49.033)">
          <path
             d="M 0,0 21.05,3.153"
             style="fill:none;stroke:#000000;stroke-width:1;stroke-linecap:butt;stroke-linejoin:miter;stroke-miterlimit:10;stroke-dasharray:none;stroke-opacity:1"
             id="path444" />
        </g>
        <g
           id="g446"
           transform="translate(73.9556,46.5289)">
          <path
             d="M 0,0 13.65,2.076"
             style="fill:none;stroke:#000000;stroke-width:1;stroke-linecap:butt;stroke-linejoin:miter;stroke-miterlimit:10;stroke-dasharray:none;stroke-opacity:1"
             id="path448" />
        </g>
        <g
           id="g450"
           transform="translate(81.5417,43.9617)">
          <path
             d="M 0,0 6.064,0.854"
             style="fill:none;stroke:#000000;stroke-width:1;stroke-linecap:butt;stroke-linejoin:miter;stroke-miterlimit:10;stroke-dasharray:none;stroke-opacity:1"
             id="path452" />
        </g>
        <g
           id="g454"
           transform="translate(73.0932,53.0929)">
          <path
             d="M 0,0 14.512,-5.526"
             style="fill:none;stroke:#000000;stroke-width:1;stroke-linecap:butt;stroke-linejoin:miter;stroke-miterlimit:10;stroke-dasharray:none;stroke-opacity:1"
             id="path456" />
        </g>
        <g
           id="g458"
           transform="translate(84.5736,54.839)">
          <path
             d="M 0,0 3.032,-1.746"
             style="fill:none;stroke:#000000;stroke-width:1;stroke-linecap:butt;stroke-linejoin:miter;stroke-miterlimit:10;stroke-dasharray:none;stroke-opacity:1"
             id="path460" />
        </g>
        <g
           id="g462"
           transform="translate(146.6982,57.1011)">
          <path
             d="M 0,0 -13.075,8.4 -29.013,5.465"
             style="fill:none;stroke:#000000;stroke-width:1;stroke-linecap:butt;stroke-linejoin:miter;stroke-miterlimit:10;stroke-dasharray:none;stroke-opacity:1"
             id="path464" />
        </g>
        <g
           id="g466"
           transform="translate(149.3339,61.3009)">
          <path
             d="M 0,0 -16.024,8.48 -38.732,3.295"
             style="fill:none;stroke:#000000;stroke-width:1;stroke-linecap:butt;stroke-linejoin:miter;stroke-miterlimit:10;stroke-dasharray:none;stroke-opacity:1"
             id="path468" />
        </g>
        <g
           id="g470"
           transform="translate(121.0745,76.0399)">
          <path
             d="M 0,0 C 0,0 9.143,4.101 12.236,-6.259"
             style="fill:none;stroke:#000000;stroke-width:1;stroke-linecap:butt;stroke-linejoin:miter;stroke-miterlimit:10;stroke-dasharray:none;stroke-opacity:1"
             id="path472" />
        </g>
        <g
           id="g474"
           transform="translate(58.576,84.1615)">
          <path
             d="M 0,0 -22.065,18.71 -3.045,36.647 1.748,31.962 -9.385,19.793 4.068,6.804 Z"
             style="fill:#000000;fill-opacity:1;fill-rule:nonzero;stroke:none"
             id="path476" />
        </g>
        <g
           id="g478"
           transform="translate(58.576,84.1615)">
          <path
             d="M 0,0 -22.065,18.71 -3.045,36.647 1.748,31.962 -9.385,19.793 4.068,6.804 Z"
             style="fill:none;stroke:#000000;stroke-width:1;stroke-linecap:butt;stroke-linejoin:miter;stroke-miterlimit:10;stroke-dasharray:none;stroke-opacity:1"
             id="path480" />
        </g>
        <g
           id="g482"
           transform="translate(64.7898,84.1615)">
          <path
             d="M 0,0 8.06,0.619 23.275,37.884 H 12.853 Z"
             style="fill:#000000;fill-opacity:1;fill-rule:nonzero;stroke:none"
             id="path484" />
        </g>
        <g
           id="g486"
           transform="translate(64.7898,84.1615)">
          <path
             d="M 0,0 8.06,0.619 23.275,37.884 H 12.853 Z"
             style="fill:none;stroke:#000000;stroke-width:1;stroke-linecap:butt;stroke-linejoin:miter;stroke-miterlimit:10;stroke-dasharray:none;stroke-opacity:1"
             id="path488" />
        </g>
        <g
           id="g490"
           transform="translate(90.4774,118.0255)">
          <path
             d="M 0,0 3.247,5.721 18.872,-4.33 6.34,-26.442 l -7.459,3.402 8.232,13.917 -8.232,7.221 z"
             style="fill:#000000;fill-opacity:1;fill-rule:nonzero;stroke:none"
             id="path492" />
        </g>
        <g
           id="g494"
           transform="translate(90.4774,118.0255)">
          <path
             d="M 0,0 3.247,5.721 18.872,-4.33 6.34,-26.442 l -7.459,3.402 8.232,13.917 -8.232,7.221 z"
             style="fill:none;stroke:#000000;stroke-width:1;stroke-linecap:butt;stroke-linejoin:miter;stroke-miterlimit:10;stroke-dasharray:none;stroke-opacity:1"
             id="path496" />
        </g>
      </g>
      <g
         id="g500"
         clip-path="url(#clipPath504)">
        <g
           id="g506"
           transform="translate(123.3208,116.1236)">
          <path
             d="m 0,0 c 0.843,0.568 1.91,-0.238 2.629,-0.957 5.008,-5.008 11.418,-8.313 17.285,-12.279 1.844,-1.248 3.688,-2.614 4.863,-4.506 0.202,-0.324 0.377,-0.765 0.138,-1.063 -0.206,-0.259 -0.596,-0.246 -0.925,-0.204 -5.384,0.684 -10.477,2.767 -15.497,4.831 C 2.951,-11.9 0.068,-5.864 0,0"
             style="fill:#000000;fill-opacity:1;fill-rule:nonzero;stroke:none"
             id="path508" />
        </g>
        <g
           id="g510"
           transform="translate(123.3208,116.1236)">
          <path
             d="m 0,0 c 0.843,0.568 1.91,-0.238 2.629,-0.957 5.008,-5.008 11.418,-8.313 17.285,-12.279 1.844,-1.248 3.688,-2.614 4.863,-4.506 0.202,-0.324 0.377,-0.765 0.138,-1.063 -0.206,-0.259 -0.596,-0.246 -0.925,-0.204 -5.384,0.684 -10.477,2.767 -15.497,4.831 C 2.951,-11.9 0.068,-5.864 0,0 Z"
             style="fill:none;stroke:#000000;stroke-width:1;stroke-linecap:butt;stroke-linejoin:miter;stroke-miterlimit:10;stroke-dasharray:none;stroke-opacity:1"
             id="path512" />
        </g>
      </g>
    </g>
  </g>
</svg>
